<?xml version="1.0" encoding="UTF-8"?>
<svg id="MørkSky" xmlns="http://www.w3.org/2000/svg" viewBox="0 0 1407.05 1061.73">
  <defs>
    <style>
      .cls-1 {
        fill: #545454;
        stroke: #545454;
        stroke-miterlimit: 10;
      }

      .cls-2 {
        fill: #c4c4c4;
      }
    </style>
  </defs>
  <path class="cls-2" d="M56.61,701.77s67.4-242.02,224.66-148.41c-87.99-170.37,174.11-224.66,202.2-106.72-127.31-286.45,453.07-325.76,372.57-3.74,189.09-177.86,339.73,149.78,161.87,254.62l-961.3,4.25Z"/>
  <path class="cls-1" d="M442.72,697.65s252.75-28.08,301.42-153.52c202.44,226.51,390.95-28.87,267.21-141.03,98.47,33.52,135.85,258.71,4.26,294.55H442.72Z"/>
  <path class="cls-1" d="M330.22,395.94c-46.35,31.27-44.03,188.96,103.15,140.71-45.61,81.02-129.56,44.9-148.19,20.59-8.77-9.92-24.91-32.41-22.09-76.9,6.43-58.45,53.02-79.04,67.13-84.4Z"/>
</svg>